<?xml version="1.0" encoding="UTF-8"?>
<svg version="1.1" xmlns="http://www.w3.org/2000/svg" width="797" height="1021">
<path d="M0 0 C3.53973817 0.01042912 7.07893256 0.00018901 10.61865234 -0.01269531 C22.81743693 -0.01729587 34.98864064 0.20365762 47.17657471 0.71855164 C77.87481987 2.01311277 108.49447993 2.52851155 139.21797228 2.4305985 C145.34325221 2.41376491 151.46854258 2.4101801 157.59384155 2.40513611 C170.50920014 2.3926431 183.42451059 2.36769787 196.33984375 2.33978271 C318.23196402 2.07736107 318.23196402 2.07736107 371.65594435 2.54578853 C374.47001686 2.56872928 377.28407711 2.58685936 380.09819412 2.60334969 C412.5857069 2.80283177 445.41521623 3.8901303 477.52099609 9.26074219 C478.30055664 9.39029297 479.08011719 9.51984375 479.88330078 9.65332031 C501.93928009 13.50126613 521.68282138 23.45901622 540.39208984 35.41088867 C543.84385801 37.61306649 547.31377487 39.73518815 550.88818359 41.73339844 C571.48247789 53.2656543 584.7527149 68.72990538 591.58374023 91.61499023 C601.14239689 126.35710259 601.29675282 164.17809642 602.07177734 200.00292969 C602.0925918 200.95565639 602.11340626 201.9083831 602.13485146 202.88998032 C602.82107597 235.63519316 602.70839582 268.39359751 602.70610726 301.14430022 C602.70641217 307.55601637 602.71463152 313.96769072 602.72680664 320.37939453 C602.91443214 421.74084469 602.91443214 421.74084469 597.45849609 464.82324219 C597.05076211 468.17748178 596.64778318 471.53226544 596.2457428 474.88719177 C596.00083477 476.91691378 595.75195724 478.94616368 595.49778748 480.9747467 C591.86016868 510.27419475 594.80055202 538.16375443 598.38427734 567.28417969 C600.02715289 581.0099448 600.97543203 594.70251176 601.59130859 608.50683594 C601.63474144 609.47434217 601.67817429 610.44184841 601.72292328 611.43867302 C602.72902103 634.42798337 602.83355768 657.40239828 602.77833939 680.41015244 C602.77086257 683.88530462 602.76727178 687.36044279 602.76461792 690.83560181 C602.7294372 729.3792807 602.26244163 767.91126718 601.58349609 806.44824219 C601.5617482 807.68926319 601.54000031 808.93028419 601.51759338 810.2089119 C600.22361215 883.60621075 600.22361215 883.60621075 597.77099609 904.32324219 C597.6851828 905.07125092 597.59936951 905.81925964 597.51095581 906.5899353 C590.78355557 964.87590995 590.78355557 964.87590995 573.45068359 980.74511719 C541.27413059 1006.01738959 490.57046615 1006.84714074 451.58349609 1007.76074219 C428.22956844 1008.23064508 428.22956844 1008.23064508 405.33349609 1012.51074219 C404.66157227 1012.69088867 403.98964844 1012.87103516 403.29736328 1013.05664062 C399.4790632 1014.22456867 397.11750452 1015.57429167 394.20836258 1018.31412983 C388.32863176 1022.77256054 381.76330581 1022.08971572 374.69110107 1022.01591492 C373.17735793 1022.02211699 371.66362365 1022.03093734 370.14990926 1022.04214031 C366.00244212 1022.06520717 361.85582255 1022.05095744 357.70837307 1022.03043115 C353.2311839 1022.01478353 348.7541215 1022.03372804 344.27694702 1022.04823303 C335.51214305 1022.07105027 326.74765812 1022.06158802 317.98286054 1022.04073217 C310.86158941 1022.02444755 303.74040534 1022.02024875 296.61911774 1022.02469826 C295.09880263 1022.02564427 295.09880263 1022.02564427 293.54777409 1022.02660939 C291.48882727 1022.02795544 289.42988046 1022.02933501 287.37093368 1022.03074775 C268.06893808 1022.04268208 248.76711748 1022.01862268 229.46516171 1021.98172966 C212.89516959 1021.95081842 196.32537873 1021.94847516 179.75537109 1021.9675293 C160.51622799 1021.98962721 141.2771977 1021.99580007 122.03804898 1021.97520667 C119.98790313 1021.9730437 117.93775727 1021.9708946 115.88761139 1021.96875954 C114.87886978 1021.96769317 113.87012817 1021.96662681 112.83081864 1021.96552813 C105.71422563 1021.95905222 98.59769059 1021.96383132 91.48110199 1021.97278404 C82.81422546 1021.98330496 74.14758522 1021.97586551 65.48075244 1021.94532826 C61.05689838 1021.93017153 56.63341777 1021.92307229 52.20955276 1021.93751907 C48.1631288 1021.9504955 44.11744613 1021.94053969 40.07110825 1021.91196034 C38.60427187 1021.90565968 37.13737034 1021.90785951 35.6705645 1021.91923078 C33.68267331 1021.93338583 31.69462667 1021.91398193 29.70679855 1021.8927412 C28.04785006 1021.89071045 28.04785006 1021.89071045 26.35538745 1021.88863868 C23.52099609 1021.26074219 23.52099609 1021.26074219 21.13438344 1018.84624225 C19.52099609 1016.26074219 19.52099609 1016.26074219 19.52099609 1014.26074219 C18.95896484 1014.01066406 18.39693359 1013.76058594 17.81787109 1013.50292969 C15.16572169 1012.06860399 13.07456329 1010.32983552 10.77099609 1008.38574219 C0.13047554 999.78608282 -9.76939851 997.97955399 -23.25634766 997.95214844 C-25.56950069 997.92694026 -27.88265168 997.90154312 -30.19580078 997.87597656 C-33.7774169 997.84759916 -37.35899627 997.82354895 -40.94067383 997.80444336 C-68.50932535 997.62931266 -97.89677869 996.63397203 -123.47900391 985.26074219 C-124.48060547 984.82737549 -124.48060547 984.82737549 -125.50244141 984.38525391 C-149.72518772 973.85338745 -166.44908938 957.67811607 -176.59204102 933.25683594 C-192.30146362 892.82626172 -193.07852708 847.43381288 -194.02978516 804.60839844 C-194.05059961 803.68402544 -194.07141407 802.75965244 -194.09285927 801.80726814 C-194.69830556 774.00475337 -194.66650475 746.1953957 -194.66411507 718.38772929 C-194.66441884 713.19750997 -194.67260651 708.00734267 -194.68481445 702.81713867 C-194.75260394 673.28699298 -194.72756306 643.7822619 -193.58837891 614.26855469 C-193.5491651 613.22779219 -193.50995129 612.18702969 -193.46954918 611.11472893 C-192.61941041 589.25891085 -190.29980138 567.63520397 -187.55322266 545.94824219 C-184.08582456 518.10181827 -185.80925626 492.23208006 -189.19238281 464.5 C-194.83040303 418.24804503 -194.64739637 371.84311631 -194.60757297 325.31703681 C-194.60383484 320.44686509 -194.60513411 315.5767139 -194.609375 310.70654297 C-194.63353799 282.19133592 -194.57028375 253.68210787 -194.02197266 225.17089844 C-194.00175678 224.1119059 -193.98154091 223.05291336 -193.96071243 221.96183014 C-191.32444949 87.65723694 -191.32444949 87.65723694 -162.47900391 55.26074219 C-161.86025391 54.54789063 -161.24150391 53.83503906 -160.60400391 53.10058594 C-155.1425046 47.22307399 -148.81097036 42.74450067 -142.28417969 38.14404297 C-137.6627822 34.87889395 -133.27147707 31.51043777 -128.97900391 27.82324219 C-106.83469119 9.09738212 -76.37054134 5.15191992 -48.47900391 2.26074219 C-47.63321777 2.17213928 -46.78743164 2.08353638 -45.91601562 1.99224854 C-30.59692655 0.43417348 -15.39330716 -0.05312969 0 0 Z " fill="#FEC700" transform="translate(194.47900390625,-0.2607421875)"/>
<path d="M0 0 C0.70744354 0.00141495 1.41488708 0.0028299 2.14376831 0.00428772 C4.40578419 0.00989025 6.66770148 0.02244307 8.9296875 0.03515625 C10.46223815 0.04017093 11.99479036 0.04473389 13.52734375 0.04882812 C17.28649638 0.05986048 21.04557522 0.07712673 24.8046875 0.09765625 C24.2742602 3.67660437 23.56937659 5.84686148 21.21484375 8.59375 C20.41759888 9.54350708 20.41759888 9.54350708 19.60424805 10.51245117 C18.74440308 11.51369019 18.74440308 11.51369019 17.8671875 12.53515625 C13.2673045 18.03786098 8.92726854 23.58301503 4.81982422 29.46362305 C1.01986012 34.86883514 -2.98503338 40.10691504 -7.0078125 45.34765625 C-12.13116806 52.0274438 -17.16837019 58.75361529 -22.0703125 65.59765625 C-25.94436127 71.00143624 -29.84879162 76.37430002 -33.8828125 81.66015625 C-34.67042969 82.69269531 -35.45804687 83.72523438 -36.26953125 84.7890625 C-38.1953125 87.09765625 -38.1953125 87.09765625 -40.1953125 88.09765625 C-42.60369928 88.18405494 -44.98265131 88.21333389 -47.390625 88.1953125 C-48.09806854 88.19389755 -48.80551208 88.1924826 -49.53439331 88.19102478 C-51.79640919 88.18542225 -54.05832648 88.17286943 -56.3203125 88.16015625 C-57.85286315 88.15514157 -59.38541536 88.15057861 -60.91796875 88.14648438 C-64.67712138 88.13545202 -68.43620022 88.11818577 -72.1953125 88.09765625 C-70.69332745 83.21557163 -68.96292672 80.25967053 -65.5703125 76.41015625 C-61.54386162 71.75058368 -57.84366586 66.96785095 -54.26171875 61.953125 C-51.94182508 58.74737401 -49.55020201 55.60513148 -47.1328125 52.47265625 C-46.70991943 51.92424072 -46.28702637 51.3758252 -45.85131836 50.81079102 C-43.94817983 48.34827533 -42.03503833 45.89416207 -40.109375 43.44921875 C-36.7113288 39.15679585 -36.7113288 39.15679585 -33.6953125 34.59765625 C-30.77600113 29.7321373 -27.03406214 25.40244843 -23.5 20.97265625 C-19.50187281 15.91456045 -15.79634629 10.70937682 -12.21533203 5.35058594 C-8.56310841 -0.04441342 -6.21671969 -0.04652622 0 0 Z " fill="#FFD700" transform="translate(377.1953125,811.90234375)"/>
<path d="M0 0 C1.94326172 0.01933594 1.94326172 0.01933594 3.92578125 0.0390625 C5.28907324 0.07248134 6.65235449 0.10634109 8.015625 0.140625 C9.39450564 0.16069793 10.77341412 0.17894733 12.15234375 0.1953125 C15.52414244 0.24247052 18.89453187 0.30827962 22.265625 0.390625 C22.83325195 2.27172852 22.83325195 2.27172852 23.265625 4.390625 C22.18359375 6.29296875 22.18359375 6.29296875 20.453125 8.328125 C19.79957031 9.1221875 19.14601563 9.91625 18.47265625 10.734375 C17.38017578 12.04921875 17.38017578 12.04921875 16.265625 13.390625 C14.71399018 15.36198651 13.17302434 17.34177431 11.640625 19.328125 C11.22514404 19.86622803 10.80966309 20.40433105 10.3815918 20.95874023 C6.15853441 26.46341809 2.12534293 32.1015907 -1.91870117 37.73828125 C-5.86091787 43.21907922 -9.92418212 48.57864754 -14.06640625 53.91015625 C-17.39878782 58.22800915 -20.62671288 62.62291463 -23.859375 67.015625 C-24.45903076 67.8300708 -25.05868652 68.6445166 -25.67651367 69.48364258 C-28.24724203 72.98189115 -30.81015932 76.48475161 -33.3359375 80.015625 C-34.04492188 81.005625 -34.75390625 81.995625 -35.484375 83.015625 C-36.07734375 83.85351562 -36.6703125 84.69140625 -37.28125 85.5546875 C-38.734375 87.390625 -38.734375 87.390625 -40.734375 88.390625 C-43.14276178 88.47702369 -45.52171381 88.50630264 -47.9296875 88.48828125 C-48.63713104 88.4868663 -49.34457458 88.48545135 -50.07345581 88.48399353 C-52.33547169 88.478391 -54.59738898 88.46583818 -56.859375 88.453125 C-58.39192565 88.44811032 -59.92447786 88.44354736 -61.45703125 88.43945312 C-65.21618388 88.42842077 -68.97526272 88.41115452 -72.734375 88.390625 C-70.79637416 79.58973945 -62.86805784 72.24310528 -57.36791992 65.28759766 C-47.96608777 53.3789286 -38.72540923 41.33378881 -29.97070312 28.94018555 C-26.69565513 24.30823198 -23.28716255 19.81221649 -19.734375 15.390625 C-18.97898437 14.44960938 -18.22359375 13.50859375 -17.4453125 12.5390625 C-12.9787157 7.02492508 -12.9787157 7.02492508 -10.734375 4.390625 C-9.88734009 3.33597046 -9.88734009 3.33597046 -9.02319336 2.26000977 C-5.91508552 -0.27852695 -3.9751494 -0.06973946 0 0 Z " fill="#FFD700" transform="translate(514.734375,811.609375)"/>
<path d="M0 0 C0.48325772 3.53953624 0.09431628 4.85794813 -1.9140625 7.8828125 C-2.80705456 8.97236126 -3.71161961 10.05248539 -4.625 11.125 C-5.64472948 12.37141044 -6.66150963 13.62023794 -7.67578125 14.87109375 C-8.21799316 15.53737793 -8.76020508 16.20366211 -9.31884766 16.89013672 C-12.25654677 20.57697897 -15.03028205 24.3827575 -17.8125 28.1875 C-18.39974854 28.98800781 -18.98699707 29.78851562 -19.59204102 30.61328125 C-21.39639682 33.07427855 -23.19829972 35.53705816 -25 38 C-32.40781196 48.11357423 -39.85812941 58.18410403 -47.50561523 68.11816406 C-51.24094807 72.97798229 -54.86865723 77.89771303 -58.4140625 82.8984375 C-58.93742187 83.59195313 -59.46078125 84.28546875 -60 85 C-60.55917114 85.79845337 -60.55917114 85.79845337 -61.12963867 86.61303711 C-64.02242345 88.75817617 -67.05510658 88.36874085 -70.51171875 88.29296875 C-71.60405571 88.28660149 -71.60405571 88.28660149 -72.71846008 88.28010559 C-75.04185127 88.26332733 -77.3643715 88.22567855 -79.6875 88.1875 C-81.26365934 88.17245197 -82.83983229 88.15876377 -84.41601562 88.14648438 C-88.27767877 88.11342685 -92.13869178 88.06165194 -96 88 C-95.17075121 84.05181674 -93.58017571 82.01533329 -90.9375 78.9375 C-87.10579102 74.37450272 -83.55294242 69.70338814 -80.08203125 64.86328125 C-77.85763034 61.80420833 -75.56555818 58.80259431 -73.25 55.8125 C-67.99180979 49.01510515 -62.83797747 42.14223757 -57.69189453 35.25976562 C-55.85886028 32.81148784 -54.02160607 30.36641757 -52.18359375 27.921875 C-50.87234415 26.17712218 -49.56114621 24.43233052 -48.25 22.6875 C-47.61143066 21.83816895 -46.97286133 20.98883789 -46.31494141 20.11376953 C-42.27322882 14.72797947 -38.2963019 9.30578835 -34.41796875 3.80078125 C-33 2 -33 2 -31 1 C-29.1009565 0.84615205 -27.19706713 0.75026284 -25.29296875 0.68359375 C-24.14892578 0.64169922 -23.00488281 0.59980469 -21.82617188 0.55664062 C-20.62541016 0.51732422 -19.42464844 0.47800781 -18.1875 0.4375 C-16.40375977 0.37272461 -16.40375977 0.37272461 -14.58398438 0.30664062 C-9.72027544 0.13459477 -4.86722777 -0.02636392 0 0 Z " fill="#FFD700" transform="translate(469,812)"/>
<path d="M0 0 C0.66 0 1.32 0 2 0 C2.02526648 7.52969652 2.04283141 15.0593822 2.05493164 22.58911133 C2.0599737 25.15291757 2.06680714 27.71672091 2.07543945 30.28051758 C2.08751064 33.95655021 2.09322942 37.63254498 2.09765625 41.30859375 C2.10281754 42.46274277 2.10797882 43.61689178 2.11329651 44.80601501 C2.11337204 45.86703934 2.11344757 46.92806366 2.11352539 48.02124023 C2.115746 48.96055893 2.11796661 49.89987762 2.12025452 50.86766052 C2 53 2 53 1 54 C-1.85911944 54.17270233 -4.69639249 54.28405945 -7.55859375 54.3515625 C-8.41808121 54.37471527 -9.27756866 54.39786804 -10.1631012 54.42172241 C-11.98473049 54.46943301 -13.80642628 54.51465825 -15.62817383 54.55761719 C-18.42228917 54.62463516 -21.2159619 54.70240555 -24.00976562 54.78125 C-25.77602524 54.82617128 -27.54230101 54.87046309 -29.30859375 54.9140625 C-30.14821152 54.93796051 -30.98782928 54.96185852 -31.85289001 54.98648071 C-37.77025029 55.11487486 -37.77025029 55.11487486 -40 54 C-38.4483253 48.96910438 -35.39822084 45.57079085 -32.0625 41.625 C-25.71523285 33.97065682 -19.79387766 26.07764653 -14 18 C-4.70253651 5.03843198 -4.70253651 5.03843198 0 0 Z " fill="#FFD700" transform="translate(686,846)"/>
<path d="M0 0 C1.32 0 2.64 0 4 0 C5.9375 2.1875 5.9375 2.1875 8 5 C9.2375 6.2375 9.2375 6.2375 10.5 7.5 C13 10 13 10 17 15 C7.1 15.33 -2.8 15.66 -13 16 C-11.92503899 11.70015596 -11.45075828 11.18400433 -8.1875 8.5625 C-5.64535626 6.45990696 -3.7749154 4.70613955 -1.75 2.0625 C-1.1725 1.381875 -0.595 0.70125 0 0 Z " fill="#FFC100" transform="translate(133,842)"/>
<path d="M0 0 C4.06026821 2.03013411 6.65457376 4.42395554 9.75 7.625 C10.25660156 8.140625 10.76320313 8.65625 11.28515625 9.1875 C12.52803902 10.45383339 13.76465276 11.7263144 15 13 C13.4614092 16.80736029 11.12165284 18.93869545 8.0625 21.625 C7.18722656 22.40101563 6.31195313 23.17703125 5.41015625 23.9765625 C3 26 3 26 0 28 C0 18.76 0 9.52 0 0 Z " fill="#FFC000" transform="translate(116,824)"/>
<path d="M0 0 C7.26 0 14.52 0 22 0 C22 0.99 22 1.98 22 3 C14.74 3 7.48 3 0 3 C0 2.01 0 1.02 0 0 Z " fill="#FFC000" transform="translate(215,127)"/>
</svg>
